<mxfile host="app.diagrams.net" modified="2021-03-01T23:33:35.783Z" agent="5.0 (Macintosh; Intel Mac OS X 11_2_1) AppleWebKit/537.36 (KHTML, like Gecko) Chrome/88.0.4324.192 Safari/537.36" etag="X-UcO133q4m5qEDkYBTj" version="14.4.3" type="github">
  <diagram id="C5RBs43oDa-KdzZeNtuy" name="Page-1">
    <mxGraphModel dx="1106" dy="540" grid="1" gridSize="10" guides="1" tooltips="1" connect="1" arrows="1" fold="1" page="1" pageScale="1" pageWidth="827" pageHeight="1169" math="0" shadow="0">
      <root>
        <mxCell id="WIyWlLk6GJQsqaUBKTNV-0" />
        <mxCell id="WIyWlLk6GJQsqaUBKTNV-1" parent="WIyWlLk6GJQsqaUBKTNV-0" />
        <mxCell id="W2D2LNSOdKJTDfiLRsnm-13" style="edgeStyle=none;rounded=0;orthogonalLoop=1;jettySize=auto;html=1;exitX=0.5;exitY=1;exitDx=0;exitDy=0;entryX=0.5;entryY=0;entryDx=0;entryDy=0;" edge="1" parent="WIyWlLk6GJQsqaUBKTNV-1" source="WIyWlLk6GJQsqaUBKTNV-3" target="W2D2LNSOdKJTDfiLRsnm-1">
          <mxGeometry relative="1" as="geometry" />
        </mxCell>
        <mxCell id="WIyWlLk6GJQsqaUBKTNV-3" value="&lt;b&gt;START&lt;/b&gt;" style="rounded=1;whiteSpace=wrap;html=1;fontSize=12;glass=0;strokeWidth=1;shadow=0;" parent="WIyWlLk6GJQsqaUBKTNV-1" vertex="1">
          <mxGeometry x="120" y="20" width="120" height="40" as="geometry" />
        </mxCell>
        <mxCell id="W2D2LNSOdKJTDfiLRsnm-12" style="edgeStyle=none;rounded=0;orthogonalLoop=1;jettySize=auto;html=1;exitX=0.5;exitY=1;exitDx=0;exitDy=0;" edge="1" parent="WIyWlLk6GJQsqaUBKTNV-1" source="W2D2LNSOdKJTDfiLRsnm-1" target="W2D2LNSOdKJTDfiLRsnm-2">
          <mxGeometry relative="1" as="geometry" />
        </mxCell>
        <mxCell id="W2D2LNSOdKJTDfiLRsnm-1" value="Validation &lt;b&gt;Request&lt;/b&gt;" style="rounded=0;whiteSpace=wrap;html=1;" vertex="1" parent="WIyWlLk6GJQsqaUBKTNV-1">
          <mxGeometry x="120" y="90" width="120" height="40" as="geometry" />
        </mxCell>
        <mxCell id="W2D2LNSOdKJTDfiLRsnm-16" style="edgeStyle=none;rounded=0;orthogonalLoop=1;jettySize=auto;html=1;exitX=0.5;exitY=1;exitDx=0;exitDy=0;" edge="1" parent="WIyWlLk6GJQsqaUBKTNV-1" source="W2D2LNSOdKJTDfiLRsnm-2" target="W2D2LNSOdKJTDfiLRsnm-3">
          <mxGeometry relative="1" as="geometry" />
        </mxCell>
        <mxCell id="W2D2LNSOdKJTDfiLRsnm-2" value="&lt;b&gt;Valid&lt;/b&gt;" style="rhombus;whiteSpace=wrap;html=1;fillColor=#f5f5f5;strokeColor=#666666;fontColor=#333333;" vertex="1" parent="WIyWlLk6GJQsqaUBKTNV-1">
          <mxGeometry x="140" y="160" width="80" height="80" as="geometry" />
        </mxCell>
        <mxCell id="W2D2LNSOdKJTDfiLRsnm-15" style="edgeStyle=none;rounded=0;orthogonalLoop=1;jettySize=auto;html=1;" edge="1" parent="WIyWlLk6GJQsqaUBKTNV-1" source="W2D2LNSOdKJTDfiLRsnm-3">
          <mxGeometry relative="1" as="geometry">
            <mxPoint x="187.5" y="270" as="targetPoint" />
          </mxGeometry>
        </mxCell>
        <mxCell id="W2D2LNSOdKJTDfiLRsnm-17" style="edgeStyle=none;rounded=0;orthogonalLoop=1;jettySize=auto;html=1;exitX=0.5;exitY=1;exitDx=0;exitDy=0;entryX=0.5;entryY=0;entryDx=0;entryDy=0;" edge="1" parent="WIyWlLk6GJQsqaUBKTNV-1" source="W2D2LNSOdKJTDfiLRsnm-3" target="W2D2LNSOdKJTDfiLRsnm-4">
          <mxGeometry relative="1" as="geometry" />
        </mxCell>
        <mxCell id="W2D2LNSOdKJTDfiLRsnm-3" value="&lt;b&gt;Set Params&lt;br&gt;&lt;/b&gt;IF (isset IsPersonalTrainer) isPersonalTrainer = 0;" style="rounded=0;whiteSpace=wrap;html=1;" vertex="1" parent="WIyWlLk6GJQsqaUBKTNV-1">
          <mxGeometry x="92.5" y="270" width="175" height="60" as="geometry" />
        </mxCell>
        <mxCell id="W2D2LNSOdKJTDfiLRsnm-18" style="edgeStyle=none;rounded=0;orthogonalLoop=1;jettySize=auto;html=1;exitX=0.5;exitY=1;exitDx=0;exitDy=0;" edge="1" parent="WIyWlLk6GJQsqaUBKTNV-1" source="W2D2LNSOdKJTDfiLRsnm-4" target="W2D2LNSOdKJTDfiLRsnm-5">
          <mxGeometry relative="1" as="geometry" />
        </mxCell>
        <mxCell id="W2D2LNSOdKJTDfiLRsnm-4" value="&lt;b&gt;Set Params&lt;/b&gt;&lt;br&gt;IF (isset ref_code) refferal_code = ref_code;" style="rounded=0;whiteSpace=wrap;html=1;fillColor=#fff2cc;strokeColor=#d6b656;" vertex="1" parent="WIyWlLk6GJQsqaUBKTNV-1">
          <mxGeometry x="92.5" y="360" width="175" height="60" as="geometry" />
        </mxCell>
        <mxCell id="W2D2LNSOdKJTDfiLRsnm-19" style="edgeStyle=none;rounded=0;orthogonalLoop=1;jettySize=auto;html=1;exitX=0.5;exitY=1;exitDx=0;exitDy=0;entryX=0.5;entryY=0;entryDx=0;entryDy=0;" edge="1" parent="WIyWlLk6GJQsqaUBKTNV-1" source="W2D2LNSOdKJTDfiLRsnm-5" target="W2D2LNSOdKJTDfiLRsnm-6">
          <mxGeometry relative="1" as="geometry" />
        </mxCell>
        <mxCell id="W2D2LNSOdKJTDfiLRsnm-5" value="&lt;b&gt;Set Params&lt;br&gt;&lt;/b&gt;email to strlower case" style="rounded=0;whiteSpace=wrap;html=1;" vertex="1" parent="WIyWlLk6GJQsqaUBKTNV-1">
          <mxGeometry x="92.5" y="450" width="175" height="50" as="geometry" />
        </mxCell>
        <mxCell id="W2D2LNSOdKJTDfiLRsnm-20" style="edgeStyle=none;rounded=0;orthogonalLoop=1;jettySize=auto;html=1;exitX=0.5;exitY=1;exitDx=0;exitDy=0;entryX=0.5;entryY=0;entryDx=0;entryDy=0;" edge="1" parent="WIyWlLk6GJQsqaUBKTNV-1" source="W2D2LNSOdKJTDfiLRsnm-6" target="W2D2LNSOdKJTDfiLRsnm-7">
          <mxGeometry relative="1" as="geometry" />
        </mxCell>
        <mxCell id="W2D2LNSOdKJTDfiLRsnm-6" value="&lt;b&gt;Validate&lt;/b&gt; verification code in verification table" style="rounded=0;whiteSpace=wrap;html=1;" vertex="1" parent="WIyWlLk6GJQsqaUBKTNV-1">
          <mxGeometry x="120" y="530" width="120" height="60" as="geometry" />
        </mxCell>
        <mxCell id="W2D2LNSOdKJTDfiLRsnm-21" value="Yes" style="edgeStyle=none;rounded=0;orthogonalLoop=1;jettySize=auto;html=1;exitX=0.5;exitY=1;exitDx=0;exitDy=0;entryX=0.5;entryY=0;entryDx=0;entryDy=0;" edge="1" parent="WIyWlLk6GJQsqaUBKTNV-1" source="W2D2LNSOdKJTDfiLRsnm-7" target="W2D2LNSOdKJTDfiLRsnm-8">
          <mxGeometry relative="1" as="geometry" />
        </mxCell>
        <mxCell id="W2D2LNSOdKJTDfiLRsnm-7" value="&lt;b&gt;Valid&lt;/b&gt;" style="rhombus;whiteSpace=wrap;html=1;fillColor=#f5f5f5;strokeColor=#666666;fontColor=#333333;" vertex="1" parent="WIyWlLk6GJQsqaUBKTNV-1">
          <mxGeometry x="140" y="620" width="80" height="70" as="geometry" />
        </mxCell>
        <mxCell id="W2D2LNSOdKJTDfiLRsnm-22" style="edgeStyle=none;rounded=0;orthogonalLoop=1;jettySize=auto;html=1;exitX=0.5;exitY=1;exitDx=0;exitDy=0;" edge="1" parent="WIyWlLk6GJQsqaUBKTNV-1" source="W2D2LNSOdKJTDfiLRsnm-8" target="W2D2LNSOdKJTDfiLRsnm-9">
          <mxGeometry relative="1" as="geometry" />
        </mxCell>
        <mxCell id="W2D2LNSOdKJTDfiLRsnm-8" value="Compare time created table verification with time now()" style="rounded=0;whiteSpace=wrap;html=1;" vertex="1" parent="WIyWlLk6GJQsqaUBKTNV-1">
          <mxGeometry x="120" y="740" width="120" height="60" as="geometry" />
        </mxCell>
        <mxCell id="W2D2LNSOdKJTDfiLRsnm-23" value="No" style="edgeStyle=none;rounded=0;orthogonalLoop=1;jettySize=auto;html=1;exitX=1;exitY=0.5;exitDx=0;exitDy=0;entryX=0.5;entryY=0;entryDx=0;entryDy=0;" edge="1" parent="WIyWlLk6GJQsqaUBKTNV-1" source="W2D2LNSOdKJTDfiLRsnm-7" target="W2D2LNSOdKJTDfiLRsnm-10">
          <mxGeometry relative="1" as="geometry">
            <Array as="points">
              <mxPoint x="270" y="655" />
              <mxPoint x="270" y="600" />
              <mxPoint x="354" y="600" />
            </Array>
          </mxGeometry>
        </mxCell>
        <mxCell id="W2D2LNSOdKJTDfiLRsnm-26" value="No" style="edgeStyle=none;rounded=0;orthogonalLoop=1;jettySize=auto;html=1;exitX=1;exitY=0.5;exitDx=0;exitDy=0;entryX=0;entryY=0.5;entryDx=0;entryDy=0;" edge="1" parent="WIyWlLk6GJQsqaUBKTNV-1" source="W2D2LNSOdKJTDfiLRsnm-9" target="W2D2LNSOdKJTDfiLRsnm-25">
          <mxGeometry relative="1" as="geometry" />
        </mxCell>
        <mxCell id="W2D2LNSOdKJTDfiLRsnm-33" value="Yes" style="edgeStyle=none;rounded=0;orthogonalLoop=1;jettySize=auto;html=1;entryX=0.5;entryY=0;entryDx=0;entryDy=0;" edge="1" parent="WIyWlLk6GJQsqaUBKTNV-1" source="W2D2LNSOdKJTDfiLRsnm-9" target="W2D2LNSOdKJTDfiLRsnm-27">
          <mxGeometry relative="1" as="geometry" />
        </mxCell>
        <mxCell id="W2D2LNSOdKJTDfiLRsnm-9" value="&lt;b&gt;&amp;lt; 5 minutes&lt;/b&gt;" style="rhombus;whiteSpace=wrap;html=1;fillColor=#f5f5f5;strokeColor=#666666;fontColor=#333333;" vertex="1" parent="WIyWlLk6GJQsqaUBKTNV-1">
          <mxGeometry x="140" y="830" width="80" height="80" as="geometry" />
        </mxCell>
        <mxCell id="W2D2LNSOdKJTDfiLRsnm-10" value="&lt;font style=&quot;font-size: 12px&quot;&gt;return &lt;b&gt;&quot;&lt;span style=&quot;font-family: &amp;#34;calibri&amp;#34; , sans-serif&quot;&gt;&lt;font style=&quot;font-size: 12px&quot;&gt;Looks like an incorrect code. Please check the SMS&lt;/font&gt;&lt;/span&gt;&lt;span style=&quot;font-family: &amp;#34;calibri&amp;#34; , sans-serif&quot;&gt;&quot;&lt;/span&gt;&lt;/b&gt;&lt;/font&gt;&lt;p class=&quot;MsoNormal&quot; style=&quot;margin: 0cm ; font-size: 12pt ; font-family: &amp;#34;calibri&amp;#34; , sans-serif&quot;&gt;&lt;/p&gt;" style="rounded=0;whiteSpace=wrap;html=1;fillColor=#f8cecc;strokeColor=#b85450;" vertex="1" parent="WIyWlLk6GJQsqaUBKTNV-1">
          <mxGeometry x="294" y="625" width="120" height="60" as="geometry" />
        </mxCell>
        <mxCell id="W2D2LNSOdKJTDfiLRsnm-11" style="edgeStyle=none;rounded=0;orthogonalLoop=1;jettySize=auto;html=1;entryX=0.5;entryY=0;entryDx=0;entryDy=0;" edge="1" parent="WIyWlLk6GJQsqaUBKTNV-1" source="W2D2LNSOdKJTDfiLRsnm-2" target="W2D2LNSOdKJTDfiLRsnm-2">
          <mxGeometry relative="1" as="geometry" />
        </mxCell>
        <mxCell id="W2D2LNSOdKJTDfiLRsnm-14" style="edgeStyle=none;rounded=0;orthogonalLoop=1;jettySize=auto;html=1;entryX=0.5;entryY=0;entryDx=0;entryDy=0;" edge="1" parent="WIyWlLk6GJQsqaUBKTNV-1" source="W2D2LNSOdKJTDfiLRsnm-3" target="W2D2LNSOdKJTDfiLRsnm-3">
          <mxGeometry relative="1" as="geometry" />
        </mxCell>
        <mxCell id="W2D2LNSOdKJTDfiLRsnm-25" value="return &lt;b&gt;verification code expired, please request another verification code&lt;/b&gt;" style="rounded=0;whiteSpace=wrap;html=1;fillColor=#f8cecc;strokeColor=#b85450;" vertex="1" parent="WIyWlLk6GJQsqaUBKTNV-1">
          <mxGeometry x="279" y="840" width="150" height="60" as="geometry" />
        </mxCell>
        <mxCell id="W2D2LNSOdKJTDfiLRsnm-34" style="edgeStyle=none;rounded=0;orthogonalLoop=1;jettySize=auto;html=1;entryX=0.5;entryY=0;entryDx=0;entryDy=0;" edge="1" parent="WIyWlLk6GJQsqaUBKTNV-1" source="W2D2LNSOdKJTDfiLRsnm-27" target="W2D2LNSOdKJTDfiLRsnm-28">
          <mxGeometry relative="1" as="geometry" />
        </mxCell>
        <mxCell id="W2D2LNSOdKJTDfiLRsnm-27" value="Check registered email in user table" style="rounded=0;whiteSpace=wrap;html=1;" vertex="1" parent="WIyWlLk6GJQsqaUBKTNV-1">
          <mxGeometry x="120" y="960" width="120" height="50" as="geometry" />
        </mxCell>
        <mxCell id="W2D2LNSOdKJTDfiLRsnm-35" value="No" style="edgeStyle=none;rounded=0;orthogonalLoop=1;jettySize=auto;html=1;" edge="1" parent="WIyWlLk6GJQsqaUBKTNV-1" source="W2D2LNSOdKJTDfiLRsnm-28" target="W2D2LNSOdKJTDfiLRsnm-29">
          <mxGeometry relative="1" as="geometry" />
        </mxCell>
        <mxCell id="W2D2LNSOdKJTDfiLRsnm-36" style="edgeStyle=none;rounded=0;orthogonalLoop=1;jettySize=auto;html=1;entryX=0.5;entryY=0;entryDx=0;entryDy=0;" edge="1" parent="WIyWlLk6GJQsqaUBKTNV-1" source="W2D2LNSOdKJTDfiLRsnm-28" target="W2D2LNSOdKJTDfiLRsnm-30">
          <mxGeometry relative="1" as="geometry" />
        </mxCell>
        <mxCell id="W2D2LNSOdKJTDfiLRsnm-28" value="&lt;b&gt;Is email available&lt;/b&gt;" style="rhombus;whiteSpace=wrap;html=1;fillColor=#f5f5f5;strokeColor=#666666;fontColor=#333333;" vertex="1" parent="WIyWlLk6GJQsqaUBKTNV-1">
          <mxGeometry x="140" y="1030" width="80" height="80" as="geometry" />
        </mxCell>
        <mxCell id="W2D2LNSOdKJTDfiLRsnm-29" value="return &lt;b&gt;please use another email&lt;/b&gt;" style="rounded=0;whiteSpace=wrap;html=1;" vertex="1" parent="WIyWlLk6GJQsqaUBKTNV-1">
          <mxGeometry x="279" y="1040" width="150" height="60" as="geometry" />
        </mxCell>
        <mxCell id="W2D2LNSOdKJTDfiLRsnm-44" value="" style="edgeStyle=none;rounded=0;orthogonalLoop=1;jettySize=auto;html=1;" edge="1" parent="WIyWlLk6GJQsqaUBKTNV-1" source="W2D2LNSOdKJTDfiLRsnm-30" target="W2D2LNSOdKJTDfiLRsnm-37">
          <mxGeometry relative="1" as="geometry" />
        </mxCell>
        <mxCell id="W2D2LNSOdKJTDfiLRsnm-30" value="&lt;b&gt;Set Params&lt;br&gt;&lt;/b&gt;provider = constant.provider.email" style="rounded=0;whiteSpace=wrap;html=1;fillColor=#fff2cc;strokeColor=#d6b656;" vertex="1" parent="WIyWlLk6GJQsqaUBKTNV-1">
          <mxGeometry x="92.5" y="1150" width="175" height="60" as="geometry" />
        </mxCell>
        <mxCell id="W2D2LNSOdKJTDfiLRsnm-31" value="" style="endArrow=none;dashed=1;html=1;dashPattern=1 3;strokeWidth=2;exitX=1;exitY=0.5;exitDx=0;exitDy=0;" edge="1" parent="WIyWlLk6GJQsqaUBKTNV-1" source="W2D2LNSOdKJTDfiLRsnm-30" target="W2D2LNSOdKJTDfiLRsnm-32">
          <mxGeometry width="50" height="50" relative="1" as="geometry">
            <mxPoint x="310" y="1205" as="sourcePoint" />
            <mxPoint x="320" y="1180" as="targetPoint" />
          </mxGeometry>
        </mxCell>
        <mxCell id="W2D2LNSOdKJTDfiLRsnm-32" value="1 , 0 = ....?" style="text;html=1;strokeColor=none;fillColor=none;align=center;verticalAlign=middle;whiteSpace=wrap;rounded=0;" vertex="1" parent="WIyWlLk6GJQsqaUBKTNV-1">
          <mxGeometry x="330" y="1170" width="90" height="20" as="geometry" />
        </mxCell>
        <mxCell id="W2D2LNSOdKJTDfiLRsnm-45" value="" style="edgeStyle=none;rounded=0;orthogonalLoop=1;jettySize=auto;html=1;" edge="1" parent="WIyWlLk6GJQsqaUBKTNV-1" source="W2D2LNSOdKJTDfiLRsnm-37" target="W2D2LNSOdKJTDfiLRsnm-38">
          <mxGeometry relative="1" as="geometry" />
        </mxCell>
        <mxCell id="W2D2LNSOdKJTDfiLRsnm-37" value="&lt;b&gt;Set Params&lt;br&gt;&lt;/b&gt;isActive = 1,&lt;br&gt;isTrainer&lt;br&gt;registrationSource from &lt;b&gt;Helper&lt;/b&gt;" style="rounded=0;whiteSpace=wrap;html=1;fillColor=#fff2cc;strokeColor=#d6b656;" vertex="1" parent="WIyWlLk6GJQsqaUBKTNV-1">
          <mxGeometry x="92.5" y="1240" width="175" height="60" as="geometry" />
        </mxCell>
        <mxCell id="W2D2LNSOdKJTDfiLRsnm-46" value="" style="edgeStyle=none;rounded=0;orthogonalLoop=1;jettySize=auto;html=1;" edge="1" parent="WIyWlLk6GJQsqaUBKTNV-1" source="W2D2LNSOdKJTDfiLRsnm-38" target="W2D2LNSOdKJTDfiLRsnm-39">
          <mxGeometry relative="1" as="geometry" />
        </mxCell>
        <mxCell id="W2D2LNSOdKJTDfiLRsnm-38" value="&lt;b&gt;Store&lt;/b&gt; Data to database table users" style="rounded=0;whiteSpace=wrap;html=1;fillColor=#d5e8d4;strokeColor=#82b366;" vertex="1" parent="WIyWlLk6GJQsqaUBKTNV-1">
          <mxGeometry x="120" y="1330" width="120" height="60" as="geometry" />
        </mxCell>
        <mxCell id="W2D2LNSOdKJTDfiLRsnm-39" value="Check Auth user where email, password, usertype&amp;nbsp;" style="rounded=0;whiteSpace=wrap;html=1;fillColor=#fff2cc;strokeColor=#d6b656;" vertex="1" parent="WIyWlLk6GJQsqaUBKTNV-1">
          <mxGeometry x="120" y="1430" width="120" height="60" as="geometry" />
        </mxCell>
        <mxCell id="W2D2LNSOdKJTDfiLRsnm-40" value="" style="endArrow=none;dashed=1;html=1;dashPattern=1 3;strokeWidth=2;" edge="1" parent="WIyWlLk6GJQsqaUBKTNV-1" target="W2D2LNSOdKJTDfiLRsnm-41">
          <mxGeometry width="50" height="50" relative="1" as="geometry">
            <mxPoint x="240" y="1460" as="sourcePoint" />
            <mxPoint x="292.5" y="1460" as="targetPoint" />
          </mxGeometry>
        </mxCell>
        <mxCell id="W2D2LNSOdKJTDfiLRsnm-41" value="usertype 1 , 0 = ....?" style="text;html=1;strokeColor=none;fillColor=none;align=center;verticalAlign=middle;whiteSpace=wrap;rounded=0;" vertex="1" parent="WIyWlLk6GJQsqaUBKTNV-1">
          <mxGeometry x="302.5" y="1450" width="127.5" height="20" as="geometry" />
        </mxCell>
        <mxCell id="W2D2LNSOdKJTDfiLRsnm-42" value="" style="endArrow=none;dashed=1;html=1;dashPattern=1 3;strokeWidth=2;exitX=1;exitY=0.5;exitDx=0;exitDy=0;" edge="1" parent="WIyWlLk6GJQsqaUBKTNV-1" target="W2D2LNSOdKJTDfiLRsnm-43">
          <mxGeometry width="50" height="50" relative="1" as="geometry">
            <mxPoint x="267.5" y="390" as="sourcePoint" />
            <mxPoint x="320" y="390" as="targetPoint" />
          </mxGeometry>
        </mxCell>
        <mxCell id="W2D2LNSOdKJTDfiLRsnm-43" value="Why ..?" style="text;html=1;strokeColor=none;fillColor=none;align=center;verticalAlign=middle;whiteSpace=wrap;rounded=0;" vertex="1" parent="WIyWlLk6GJQsqaUBKTNV-1">
          <mxGeometry x="330" y="380" width="90" height="20" as="geometry" />
        </mxCell>
      </root>
    </mxGraphModel>
  </diagram>
</mxfile>
